<svg width="72" height="72" viewBox="0 0 72 72" fill="none" xmlns="http://www.w3.org/2000/svg"><g clip-path="url(#IamSending_svg__a)"><path d="M69.03.07 1.84 16.32c-1.82.44-2.46 2.71-1.13 4.03l25.47 25.47L71.29.71c-.56-.56-1.39-.85-2.26-.64Z" fill="#4C00FB"></path><path d="M71.29.71 26.18 45.82l25.47 25.47c1.33 1.33 3.59.69 4.03-1.13L71.93 2.97c.21-.87-.08-1.7-.64-2.26Z" fill="#CAC2FF"></path><path d="M69.03.07 19.31 34.98a2.402 2.402 0 0 0-.32 3.66l14.45 14.45c1.06 1.06 2.81.9 3.67-.32l34.82-49.8c.42-1.75-1.15-3.32-2.9-2.9Z" fill="#FF4464"></path></g><defs><clipPath id="IamSending_svg__a"><path fill="#fff" d="M0 0h72v72H0z"></path></clipPath></defs></svg>
