<svg width="72" height="72" viewBox="0 0 72 72" fill="none" xmlns="http://www.w3.org/2000/svg"><g clip-path="url(#IamLiveChat_svg__a)"><path d="M49.387 22.612c.068.698.113 1.418.113 2.138 0 13.68-11.07 24.75-24.75 24.75h-2.138C23.76 62.122 34.335 72 47.25 72H72V47.25c0-12.938-9.945-23.558-22.613-24.638Z" fill="#CAC2FF"></path><path d="M47.25 22.5c.72 0 1.44.045 2.137.113C48.307 9.945 37.687 0 24.75 0 11.07 0 0 11.07 0 24.75V49.5h22.613a24.694 24.694 0 0 1-.113-2.25c0-13.68 11.07-24.75 24.75-24.75Z" fill="#4C00FB"></path><path d="M49.5 24.75c0-.72-.045-1.44-.112-2.137a22.278 22.278 0 0 0-2.138-.113c-13.68 0-24.75 11.07-24.75 24.75 0 .765.045 1.508.113 2.25h2.137c13.68 0 24.75-11.07 24.75-24.75Z" fill="#FF4464"></path></g><defs><clipPath id="IamLiveChat_svg__a"><path fill="#fff" d="M0 0h72v72H0z"></path></clipPath></defs></svg>
